<svg xmlns="http://www.w3.org/2000/svg" xmlns:xlink="http://www.w3.org/1999/xlink" viewBox="0 0 512 512">
<path d="M401.819,206.077c-8.33-8.331-21.838-8.331-30.17,0l-85.48,85.481l-45.254-45.257c-4.001-4.001-9.426-6.249-15.086-6.249
	c-5.658,0-11.083,2.247-15.084,6.249L110.18,346.869c-8.331,8.33-8.331,21.838,0,30.17c4.166,4.166,9.626,6.248,15.084,6.248
	c5.46,0,10.92-2.084,15.084-6.248l85.481-85.478l45.254,45.254c4.001,4.001,9.427,6.248,15.086,6.248
	c5.658,0,11.083-2.247,15.084-6.248l100.567-100.567C410.15,227.917,410.15,214.409,401.819,206.077z" fill="#000" stroke="#000" stroke-width="25px"/>
</svg>