<svg width="18" height="18" viewBox="0 0 500 500" fill="#000" xmlns="http://www.w3.org/2000/svg">
<path d="M250,50c53.42,0,103.65,20.8,141.42,58.58,37.77,37.77,58.58,88,58.58,141.42s-20.8,103.65-58.58,141.42c-37.77,37.78-88,58.58-141.42,58.58s-103.65-20.8-141.42-58.58c-37.77-37.77-58.58-88-58.58-141.42s20.8-103.65,58.58-141.42c37.77-37.78,88-58.58,141.42-58.58m0-50C111.93,0,0,111.93,0,250s111.93,250,250,250,250-111.93,250-250S388.07,0,250,0h0Z"  />
<polygon points="250 348.75 157.29 400 175 291.46 100 214.59 203.65 198.75 250 100 296.35 198.75 400 214.59 325 291.46 342.71 400 250 348.75" />
</svg>
