<svg width="500" height="450" viewBox="0 0 500 450" fill="transparent" stroke="#fff" stroke-width="50px" xmlns="http://www.w3.org/2000/svg">
<path d="M327.97,264.27c29.22-21.99,47.98-56.05,47.98-94.29,0-66.31-56.39-120.06-125.95-120.06s-125.95,53.75-125.95,120.06c0,38.24,18.76,72.3,47.98,94.29-58.18,22.36-103.43,69-122.03,126.82,16.4,34.74,52.94,58.91,95.39,58.91h209.22c42.44,0,78.98-24.18,95.39-58.91-18.6-57.81-63.84-104.45-122.03-126.82Z" />
<path d="M408.48,160.76c21.92-16.49,35.98-42.04,35.98-70.72C444.46,40.31,402.17,0,350,0c-27.1,0-51.53,10.88-68.76,28.31,63.22,13.56,110.45,67.4,110.45,131.76,0,43.02-21.1,81.34-53.98,106.07,21.91,8.42,42.18,19.92,60.26,33.91h30.48c31.83,0,59.24-18.13,71.54-44.19-13.95-43.36-47.88-78.34-91.52-95.11Z" />
<path d="M102.02,300.06c18.07-13.99,38.34-25.49,60.26-33.91-32.87-24.73-53.98-63.05-53.98-106.07,0-64.36,47.23-118.2,110.45-131.76C201.53,10.88,177.1,0,150,0,97.83,0,55.54,40.31,55.54,90.04c0,28.68,14.07,54.23,35.98,70.72C47.88,177.53,13.95,212.51,0,255.87c12.3,26.05,39.71,44.19,71.54,44.19h30.48Z" />
</svg>