<svg height="500" width="375" viewBox="0 0 375 500" fill="#fff" xmlns="http://www.w3.org/2000/svg">
<path d="M241.63,345.74H112.67v-12.74c0-21.68,2.49-39.29,7.47-52.82,4.98-13.52,12.39-25.88,22.23-37.06,9.84-11.18,31.95-30.85,66.35-59.02,18.33-14.76,27.49-28.28,27.49-40.58s-3.68-21.85-11.03-28.67c-7.35-6.82-18.5-10.23-33.43-10.23-16.07,0-29.36,5.25-39.88,15.76-10.52,10.51-17.25,28.84-20.19,55L0,159.29C4.52,111.45,22.11,72.94,52.77,43.76,83.43,14.59,130.43,0,193.78,0c49.32,0,89.14,10.17,119.46,30.52,41.18,27.5,61.76,64.16,61.76,109.99,0,19-5.32,37.34-15.95,55-10.64,17.66-32.36,39.24-65.16,64.72-22.85,17.89-37.28,32.25-43.27,43.09-6,10.85-8.99,24.98-8.99,42.42Zm-133.37,33.87H246.38v120.39H108.26v-120.39Z" />
</svg>
